<?xml version="1.0" encoding="UTF-8"?>
<svg width="200" height="200" viewBox="0 0 200 200" xmlns="http://www.w3.org/2000/svg" role="img" aria-label="Healthcare Grievance System logo">
  <defs>
    <linearGradient id="g" x1="0" x2="1" y1="0" y2="1">
      <stop offset="0%" stop-color="#2ecc71"/>
      <stop offset="100%" stop-color="#27ae60"/>
    </linearGradient>
  </defs>
  <rect width="200" height="200" rx="28" fill="url(#g)" />
  <g transform="translate(50,50) scale(1)">
    <path d="M50 10c-5 0-10 3-12 7l-6 14H16c-6 0-10 5-10 11v10c0 6 4 11 10 11h16l6 14c2 4 7 7 12 7s10-3 12-7l6-14h16c6 0 10-5 10-11v-10c0-6-4-11-10-11H88l-6-14c-2-4-7-7-12-7z" fill="#fff" opacity="0.07"/>
    <g transform="translate(20,10)">
      <path d="M30 6c-14 0-26 11-26 25s12 25 26 25 26-11 26-25S44 6 30 6zm0 8c3 0 5 2 5 5v4h4c3 0 5 2 5 5s-2 5-5 5h-4v4c0 3-2 5-5 5s-5-2-5-5v-4h-4c-3 0-5-2-5-5s2-5 5-5h4v-4c0-3 2-5 5-5z" fill="#fff"/>
    </g>
  </g>
</svg>
